<svg xmlns="http://www.w3.org/2000/svg" x="0px" y="0px" width="100" height="100" viewBox="0,0,256,256" style="fill:#000000;"> <g fill="none" fill-rule="nonzero" stroke="none" stroke-width="1" stroke-linecap="butt" stroke-linejoin="miter" stroke-miterlimit="10" stroke-dasharray="" stroke-dashoffset="0" font-family="none" font-weight="none" font-size="none" text-anchor="none" style="mix-blend-mode: normal"><g transform="scale(2.56,2.56)"><path d="M74.522,22.625c0.007,-4.48 -1.084,-9.033 -5.637,-10.88c-0.016,-0.007 -0.032,-0.01 -0.048,-0.017c-4.003,-2.566 -9.743,-2.503 -14.608,-2.25c-7.961,0.415 -17.235,-1.219 -24.907,1.326c-7.403,2.457 -7.208,11.878 -7.033,18.286c0.294,10.78 0.497,21.497 0.321,32.288c-0.007,0.431 0.054,0.828 0.145,1.207c-1.294,6.146 -0.491,12.396 -0.289,18.63c0.063,1.929 1.869,3.433 3.797,2.893c1.841,-0.516 3.646,-1.503 5.418,-2.58c4.827,-1.858 9.893,-4.408 14.465,-7.264c2.499,1.444 5.223,2.431 7.99,3.418c5.183,1.85 10.04,4.385 15.098,6.532c1.897,1.076 3.823,-0.101 4.327,-1.806c0.299,-0.665 0.362,-1.388 0.107,-2.028c0.198,-0.544 0.31,-1.157 0.3,-1.85c-0.2,-13.401 0.146,-26.83 0.307,-40.23c0.064,-5.222 0.239,-10.452 0.247,-15.675z" fill="#f60a15"></path><path d="M41.097,21.99c-0.805,-2.945 -4.844,-3.385 -6.397,-0.836c-0.127,0.208 -0.241,0.423 -0.35,0.639c-0.934,0.347 -1.684,1.073 -1.879,2.244c-0.052,0.312 -0.079,0.621 -0.119,0.931c-0.002,0 -0.004,0 -0.006,-0.001c-0.023,0.18 -0.052,0.36 -0.076,0.54c-1.363,0.349 -2.514,1.421 -2.521,3.244c-0.034,9.181 -1.482,18.78 -0.805,27.901c0.254,3.424 5.274,4.842 6.63,1.71c1.756,0.324 3.812,-0.495 4.182,-2.428c0.07,-0.366 0.119,-0.732 0.179,-1.098c1.048,-0.48 1.805,-1.477 1.689,-3.022c-0.339,-4.546 -0.495,-9.102 -0.821,-13.648c0.178,-5.132 1.667,-11.156 0.294,-16.176z" fill="#edecec"></path><path d="M24.352,30.591c0,0 -0.017,3.082 -0.153,8.656c-0.137,5.617 -0.333,13.706 -0.574,23.622c-0.112,4.991 -0.235,10.455 -0.302,16.338c-0.004,0.738 -0.008,1.482 -0.012,2.232l0.006,1.141c-0.005,0.159 0.017,0.469 0.048,0.717c0.043,0.259 0.098,0.516 0.186,0.766c0.337,0.998 1.041,1.885 2.006,2.414c0.944,0.552 2.198,0.671 3.226,0.348c0.934,-0.301 1.587,-0.6 2.357,-0.917c0.735,-0.322 1.474,-0.646 2.219,-0.972c1.478,-0.665 2.965,-1.354 4.466,-2.064c2.999,-1.429 6.05,-2.919 9.141,-4.596l1.092,-0.608l0.137,-0.075c0.051,-0.032 0.09,-0.05 0.096,-0.026c0.028,0.017 0.004,0.008 0.073,0.043l0.614,0.303l1.218,0.573c1.623,0.747 3.259,1.467 4.914,2.19c3.316,1.416 6.688,2.856 10.109,4.317c1.71,0.722 3.433,1.448 5.167,2.18l0.251,0.107c0,0 -0.072,-0.031 -0.01,-0.003l0.059,0.03l0.119,0.059c0.081,0.037 0.156,0.08 0.242,0.111c0.336,0.136 0.693,0.237 1.066,0.3c0.749,0.119 1.55,0.033 2.258,-0.24c1.426,-0.548 2.468,-1.736 2.891,-3.145l-0.08,0.216c0.066,-0.222 0.122,-0.46 0.16,-0.704c0.018,-0.113 0.036,-0.263 0.042,-0.348l0.009,-0.171c0.012,-0.229 0.024,-0.464 0.035,-0.698c0.226,-6.93 0.25,-13.596 0.305,-20.116c0.018,-6.496 0.036,-12.797 0.053,-18.853c0.01,-6.034 0.019,-11.821 0.028,-17.306c-0.009,-1.359 0.039,-2.708 -0.092,-4.129c-0.127,-1.396 -0.382,-2.786 -0.853,-4.116c-0.468,-1.327 -1.201,-2.586 -2.171,-3.608c-0.944,-1.019 -2.218,-1.801 -3.348,-2.22c-0.012,-0.001 -0.053,-0.027 -0.037,-0.016l-0.124,-0.069l-0.273,-0.154c-0.181,-0.103 -0.362,-0.206 -0.55,-0.287c-0.372,-0.177 -0.742,-0.349 -1.121,-0.482c-0.75,-0.297 -1.511,-0.497 -2.261,-0.677c-1.505,-0.333 -2.981,-0.474 -4.404,-0.533c-2.839,-0.124 -5.516,0.15 -7.922,0.276c-4.865,0.174 -9.131,-0.026 -12.614,0.129c-3.488,0.127 -6.188,0.532 -7.973,0.979c-0.894,0.221 -1.566,0.417 -2.01,0.579c-0.446,0.148 -0.676,0.224 -0.676,0.224c0,0 0.234,-0.061 0.69,-0.179c0.452,-0.132 1.134,-0.284 2.033,-0.449c1.798,-0.334 4.486,-0.574 7.943,-0.511c3.461,0.035 7.67,0.455 12.634,0.511c2.503,-0.015 5.076,-0.162 7.795,0.073c1.351,0.114 2.726,0.306 4.075,0.663c0.668,0.191 1.341,0.395 1.98,0.679c0.327,0.128 0.636,0.29 0.947,0.451c0.159,0.075 0.306,0.168 0.455,0.26l0.563,0.339c2.105,0.848 3.515,2.528 4.225,4.754c0.348,1.106 0.533,2.31 0.605,3.557c0.078,1.227 -0.008,2.575 -0.043,3.948c-0.163,5.464 -0.355,11.234 -0.482,17.281c-0.118,6.054 -0.24,12.353 -0.366,18.847c-0.129,6.488 -0.198,13.236 -0.418,19.999c-0.011,0.213 -0.021,0.425 -0.032,0.633l-0.008,0.155c-0.003,0.023 -0.001,-0.021 0.005,-0.028c0.006,-0.016 0.017,-0.031 0.031,-0.045l0.024,-0.019l0.007,-0.004l0.466,0.187c0.354,0.148 0.704,0.305 1.048,0.473l-1.572,-0.455c-0.121,0.422 -0.475,0.799 -0.828,0.927c-0.177,0.068 -0.349,0.089 -0.535,0.062c-0.227,-0.031 -0.248,-0.074 -0.92,-0.37c-1.744,-0.724 -3.476,-1.443 -5.195,-2.157c-3.427,-1.422 -6.805,-2.823 -10.126,-4.2c-1.643,-0.703 -3.272,-1.4 -4.886,-2.091l-1.181,-0.532l-0.571,-0.269c-0.328,-0.152 -0.734,-0.375 -1.094,-0.557c-0.183,-0.07 -0.377,-0.249 -0.55,-0.229l-0.493,0.3l-0.982,0.598l-1.167,0.683c-2.96,1.68 -5.964,3.23 -8.893,4.715c-1.472,0.726 -2.926,1.444 -4.362,2.153c-0.72,0.339 -1.435,0.677 -2.146,1.012c-0.686,0.313 -1.469,0.67 -2.019,0.865c-0.867,0.336 -1.84,-0.195 -2.174,-1.086c-0.044,-0.107 -0.07,-0.22 -0.095,-0.333c-0.013,-0.127 -0.033,-0.192 -0.037,-0.41l-0.042,-1.108c-0.021,-0.742 -0.042,-1.478 -0.062,-2.208c-0.115,-5.85 -0.222,-11.314 -0.321,-16.318c-0.193,-9.98 -0.397,-18.052 -0.586,-23.627c-0.18,-5.58 -0.373,-8.657 -0.373,-8.657z" fill="#000000"></path></g></g> </svg>

